<svg xmlns="http://www.w3.org/2000/svg" width="512" height="512" viewBox="0 0 512 512">
  <defs>
    <linearGradient id="bg" x1="0" y1="0" x2="0" y2="1">
      <stop offset="0" stop-color="#FF7A14"/>
      <stop offset="1" stop-color="#E55E00"/>
    </linearGradient>
  </defs>
  <rect width="512" height="512" rx="112" fill="url(#bg)"/>
  <!-- hard hat -->
  <path d="M150 196 a106 106 0 0 1 212 0 v10 H150 z" fill="#FFD23F"/>
  <rect x="196" y="150" width="120" height="40" rx="14" fill="#FFD23F"/>
  <rect x="138" y="196" width="236" height="20" rx="10" fill="#F2A900"/>
  <!-- robot head -->
  <rect x="166" y="224" width="180" height="150" rx="34" fill="#fff"/>
  <!-- eyes -->
  <circle cx="214" cy="292" r="20" fill="#1A1B1E"/>
  <circle cx="298" cy="292" r="20" fill="#1A1B1E"/>
  <circle cx="220" cy="286" r="6" fill="#fff"/>
  <circle cx="304" cy="286" r="6" fill="#fff"/>
  <!-- smile -->
  <path d="M210 332 q46 34 92 0" stroke="#1A1B1E" stroke-width="12" fill="none" stroke-linecap="round"/>
  <!-- antenna -->
  <circle cx="256" cy="150" r="12" fill="#fff"/>
  <!-- spanner accent -->
  <g transform="translate(256 430) rotate(-30)" fill="#fff">
    <rect x="-70" y="-9" width="140" height="18" rx="9"/>
    <circle cx="-70" cy="0" r="20"/>
    <circle cx="70" cy="0" r="20"/>
    <circle cx="-70" cy="0" r="9" fill="#E55E00"/>
    <circle cx="70" cy="0" r="9" fill="#E55E00"/>
  </g>
</svg>
